<svg fill="none" viewBox="0 0 348 348" xmlns="http://www.w3.org/2000/svg"><path d="M5.079 5.776h336.913v337.67H5.08z" stroke="#000" stroke-width="2"/><path d="M282.73 40.554c0-8.376 6.966-15.165 15.56-15.165 4.126 0 8.084 1.597 11.001 4.441 2.918 2.844 4.558 6.702 4.558 10.724 0 8.376-6.966 15.165-15.56 15.165-8.593 0-15.559-6.79-15.559-15.165z" stroke="#000" stroke-width="2"/><path opacity=".297" stroke="#000" d="M177.26 77.945h79.244v19.29H177.26zM221.05 112.88h78.723v20.332H221.05zM221.05 138.42h80.287v18.247H221.05zM221.05 163.97h77.68v16.162h-77.68zM221.05 186.38h79.765v18.768H221.05zM222.09 212.45h77.159v17.726H222.09zM221.05 236.43h79.765v19.811H221.05zM221.57 261.46h77.68v17.204h-77.68zM221.57 284.4h79.765v19.811H221.57zM124.08 315.68h80.808v18.247H124.08z"/><text transform="scale(.98027 1.0201)" x="17.22" y="62.414" fill="#000" font-family="sans-serif" font-size="19.842" letter-spacing="0" stroke-width="1.488" word-spacing="0" style="line-height:1.25"><tspan x="17.22" y="62.414">Antimatter</tspan></text><text transform="scale(.97115 1.0297)" x="184.062" y="63.89" fill="#000" font-family="sans-serif" font-size="25.72" letter-spacing="0" stroke-width="1.929" word-spacing="0" style="line-height:1.25"><tspan x="184.062" y="63.89">69</tspan></text><text x="16.22" y="91.792" fill="#000" font-family="sans-serif" font-size="13.333" letter-spacing="0" word-spacing="0" style="line-height:1.25"><tspan x="16.22" y="91.792">/(</tspan></text><text x="16.589" y="126.076" fill="#000" font-family="sans-serif" font-size="13.333" letter-spacing="0" word-spacing="0" style="line-height:1.25"><tspan x="16.589" y="126.076">(</tspan></text><text x="16.4" y="146.389" fill="#000" font-family="sans-serif" font-size="13.333" letter-spacing="0" word-spacing="0" style="line-height:1.25"><tspan x="16.4" y="146.389">(</tspan></text><text x="15.294" y="171.826" fill="#000" font-family="sans-serif" font-size="13.333" letter-spacing="0" word-spacing="0" style="line-height:1.25"><tspan x="15.294" y="171.826">(</tspan></text><text x="15.663" y="196.156" fill="#000" font-family="sans-serif" font-size="13.333" letter-spacing="0" word-spacing="0" style="line-height:1.25"><tspan x="15.663" y="196.156">(</tspan></text><text x="16.031" y="221.593" fill="#000" font-family="sans-serif" font-size="13.333" letter-spacing="0" word-spacing="0" style="line-height:1.25"><tspan x="16.031" y="221.593">(</tspan></text><text x="16.031" y="245.554" fill="#000" font-family="sans-serif" font-size="13.333" letter-spacing="0" word-spacing="0" style="line-height:1.25"><tspan x="16.031" y="245.554">(</tspan></text><text x="16.4" y="271.36" fill="#000" font-family="sans-serif" font-size="13.333" letter-spacing="0" word-spacing="0" style="line-height:1.25"><tspan x="16.4" y="271.36">(</tspan></text><text x="16.4" y="294.215" fill="#000" font-family="sans-serif" font-size="13.333" letter-spacing="0" word-spacing="0" style="line-height:1.25"><tspan x="16.4" y="294.215">(</tspan></text><text transform="scale(.93408 1.0706)" x="86.431" y="86.403" fill="#000" font-family="sans-serif" font-size="14.274" letter-spacing="0" stroke-width="1.071" word-spacing="0" style="line-height:1.25"><tspan x="86.431" y="86.403">69</tspan></text><text transform="scale(.93408 1.0706)" x="81.683" y="117.786" fill="#000" font-family="sans-serif" font-size="14.274" letter-spacing="0" stroke-width="1.071" word-spacing="0" style="line-height:1.25"><tspan x="81.683" y="117.786">69</tspan></text><text transform="scale(.93408 1.0706)" x="79.315" y="138.102" fill="#000" font-family="sans-serif" font-size="14.274" letter-spacing="0" stroke-width="1.071" word-spacing="0" style="line-height:1.25"><tspan x="79.315" y="138.102">69</tspan></text><text transform="scale(.93408 1.0706)" x="78.526" y="161.517" fill="#000" font-family="sans-serif" font-size="14.274" letter-spacing="0" stroke-width="1.071" word-spacing="0" style="line-height:1.25"><tspan x="78.526" y="161.517">69</tspan></text><text transform="scale(.93408 1.0706)" x="78.131" y="186.31" fill="#000" font-family="sans-serif" font-size="14.274" letter-spacing="0" stroke-width="1.071" word-spacing="0" style="line-height:1.25"><tspan x="78.131" y="186.31">69</tspan></text><text transform="scale(.93408 1.0706)" x="78.921" y="209.037" fill="#000" font-family="sans-serif" font-size="14.274" letter-spacing="0" stroke-width="1.071" word-spacing="0" style="line-height:1.25"><tspan x="78.921" y="209.037">69</tspan></text><text transform="scale(.93408 1.0706)" x="76.947" y="232.108" fill="#000" font-family="sans-serif" font-size="14.274" letter-spacing="0" stroke-width="1.071" word-spacing="0" style="line-height:1.25"><tspan x="76.947" y="232.108">69</tspan></text><text transform="scale(.93408 1.0706)" x="77.737" y="254.145" fill="#000" font-family="sans-serif" font-size="14.274" letter-spacing="0" stroke-width="1.071" word-spacing="0" style="line-height:1.25"><tspan x="77.737" y="254.145">69</tspan></text><text transform="scale(.93408 1.0706)" x="76.947" y="278.594" fill="#000" font-family="sans-serif" font-size="14.274" letter-spacing="0" stroke-width="1.071" word-spacing="0" style="line-height:1.25"><tspan x="76.947" y="278.594">69</tspan></text><text x="95.847" y="91.424" fill="#000" font-family="sans-serif" font-size="13.333" letter-spacing="0" word-spacing="0" style="line-height:1.25"><tspan x="95.847" y="91.424">)</tspan></text><text x="90.719" y="125.376" fill="#000" font-family="sans-serif" font-size="13.333" letter-spacing="0" word-spacing="0" style="line-height:1.25"><tspan x="90.719" y="125.376">)</tspan></text><text x="89.613" y="146.389" fill="#000" font-family="sans-serif" font-size="13.333" letter-spacing="0" word-spacing="0" style="line-height:1.25"><tspan x="89.613" y="146.389">)</tspan></text><text x="89.244" y="171.826" fill="#000" font-family="sans-serif" font-size="13.333" letter-spacing="0" word-spacing="0" style="line-height:1.25"><tspan x="89.244" y="171.826">)</tspan></text><text x="89.613" y="196.893" fill="#000" font-family="sans-serif" font-size="13.333" letter-spacing="0" word-spacing="0" style="line-height:1.25"><tspan x="89.613" y="196.893">)</tspan></text><text x="88.876" y="221.224" fill="#000" font-family="sans-serif" font-size="13.333" letter-spacing="0" word-spacing="0" style="line-height:1.25"><tspan x="88.876" y="221.224">)</tspan></text><text x="88.507" y="245.923" fill="#000" font-family="sans-serif" font-size="13.333" letter-spacing="0" word-spacing="0" style="line-height:1.25"><tspan x="88.507" y="245.923">)</tspan></text><text x="87.77" y="272.097" fill="#000" font-family="sans-serif" font-size="13.333" letter-spacing="0" word-spacing="0" style="line-height:1.25"><tspan x="87.77" y="272.097">)</tspan></text><text x="87.77" y="296.427" fill="#000" font-family="sans-serif" font-size="13.333" letter-spacing="0" word-spacing="0" style="line-height:1.25"><tspan x="87.77" y="296.427">)</tspan></text><text transform="scale(.79137 1.2636)" x="131.83" y="75.382" fill="#000" font-family="sans-serif" font-size="17.231" letter-spacing="0" stroke-width="1.292" word-spacing="0" style="line-height:1.25"><tspan x="131.83" y="75.382">Tickspeed</tspan></text><flowRoot transform="matrix(1.007 0 0 1.6662 -1.836 -52.921)" fill="#000" font-family="sans-serif" font-size="13.333" letter-spacing="0" word-spacing="0" style="line-height:1.25" xml:space="preserve"><flowRegion><path d="M98.428 112.44h109.86v19.907H98.428z"/></flowRegion><flowPara>2nd Dimensions Dimensions:</flowPara></flowRoot><flowRoot transform="matrix(1.007 0 0 1.6662 -2.573 -6.472)" fill="#000" font-family="sans-serif" font-size="13.333" letter-spacing="0" word-spacing="0" style="line-height:1.25" xml:space="preserve"><flowRegion><path d="M98.428 112.44h112.78v20.349H98.428z"/></flowRegion><flowPara>4th Dimensions:</flowPara></flowRoot><flowRoot transform="matrix(1.007 0 0 1.6662 -.361 43.295)" fill="#000" font-family="sans-serif" font-size="13.333" letter-spacing="0" word-spacing="0" style="line-height:1.25" xml:space="preserve"><flowRegion><path d="M98.428 112.44h112.42v19.686H98.428z"/></flowRegion><flowPara>6th Dimensions:</flowPara></flowRoot><flowRoot transform="matrix(1.007 0 0 1.6662 -.73 94.536)" fill="#000" font-family="sans-serif" font-size="13.333" letter-spacing="0" word-spacing="0" style="line-height:1.25" xml:space="preserve"><flowRegion><path d="M98.428 112.44h111.69v19.464H98.428z"/></flowRegion><flowPara>8th Dimensions:</flowPara></flowRoot></svg>